<svg xmlns="http://www.w3.org/2000/svg" xmlns:xlink="http://www.w3.org/1999/xlink" contentStyleType="text/css" data-diagram-type="DESCRIPTION" height="904px" preserveAspectRatio="none" style="width:502px;height:904px;background:#FFFFFF;" version="1.1" viewBox="0 0 502 904" width="502px" zoomAndPan="magnify"><?plantuml 1.2026.5?><defs/><g><g class="title" data-source-line="1"><text fill="#000000" font-family="'Noto Sans CJK SC'" font-size="14" font-weight="700" lengthAdjust="spacing" textLength="461.998" x="16.7361" y="26.2399">&#38754;&#21521;&#36234;&#21335;&#30041;&#23398;&#29983;&#30340;&#38081;&#36947;&#19987;&#19994;&#27721;&#36234;&#26415;&#35821;&#32763;&#35793;&#23398;&#20064;&#36719;&#20214;&#32451;&#20064;&#27979;&#35780;&#27169;&#22359;&#32452;&#20214;&#21327;&#20316;&#22270;</text></g><!--entity UI--><g class="entity" data-qualified-name="UI" data-source-line="20" id="ent0001"><rect fill="#F8FBFF" height="50.2719" rx="2.5" ry="2.5" style="stroke:#0072B2;stroke-width:0.5;" width="123.9996" x="163.47" y="48.2719"/><rect fill="#F8FBFF" height="10" style="stroke:#0072B2;stroke-width:0.5;" width="15" x="267.4696" y="53.2719"/><rect fill="#F8FBFF" height="2" style="stroke:#0072B2;stroke-width:0.5;" width="4" x="265.4696" y="55.2719"/><rect fill="#F8FBFF" height="2" style="stroke:#0072B2;stroke-width:0.5;" width="4" x="265.4696" y="59.2719"/><text fill="#000000" font-family="'Noto Sans CJK SC'" font-size="14" lengthAdjust="spacing" textLength="83.9996" x="178.47" y="84.5118">&#23398;&#29983;&#39029;&#38754;&#20837;&#21475;</text></g><!--entity View--><g class="entity" data-qualified-name="View" data-source-line="21" id="ent0002"><rect fill="#F8FBFF" height="50.2719" rx="2.5" ry="2.5" style="stroke:#0072B2;stroke-width:0.5;" width="179.9994" x="135.47" y="178.5419"/><rect fill="#F8FBFF" height="10" style="stroke:#0072B2;stroke-width:0.5;" width="15" x="295.4694" y="183.5419"/><rect fill="#F8FBFF" height="2" style="stroke:#0072B2;stroke-width:0.5;" width="4" x="293.4694" y="185.5419"/><rect fill="#F8FBFF" height="2" style="stroke:#0072B2;stroke-width:0.5;" width="4" x="293.4694" y="189.5419"/><text fill="#000000" font-family="'Noto Sans CJK SC'" font-size="14" lengthAdjust="spacing" textLength="139.9994" x="150.47" y="214.7818">&#32451;&#20064;&#27979;&#35780;&#27169;&#22359;&#21069;&#31471;&#36923;&#36753;</text></g><!--entity Client--><g class="entity" data-qualified-name="Client" data-source-line="22" id="ent0003"><rect fill="#F8FBFF" height="50.2719" rx="2.5" ry="2.5" style="stroke:#0072B2;stroke-width:0.5;" width="102.9438" x="7" y="308.8119"/><rect fill="#F8FBFF" height="10" style="stroke:#0072B2;stroke-width:0.5;" width="15" x="89.9438" y="313.8119"/><rect fill="#F8FBFF" height="2" style="stroke:#0072B2;stroke-width:0.5;" width="4" x="87.9438" y="315.8119"/><rect fill="#F8FBFF" height="2" style="stroke:#0072B2;stroke-width:0.5;" width="4" x="87.9438" y="319.8119"/><text fill="#000000" font-family="'Noto Sans CJK SC'" font-size="14" lengthAdjust="spacing" textLength="62.9438" x="22" y="345.0518">API Client</text></g><!--entity Auth--><g class="entity" data-qualified-name="Auth" data-source-line="23" id="ent0004"><rect fill="#F8FBFF" height="50.2719" rx="2.5" ry="2.5" style="stroke:#0072B2;stroke-width:0.5;" width="137.9996" x="71.47" y="439.0819"/><rect fill="#F8FBFF" height="10" style="stroke:#0072B2;stroke-width:0.5;" width="15" x="189.4696" y="444.0819"/><rect fill="#F8FBFF" height="2" style="stroke:#0072B2;stroke-width:0.5;" width="4" x="187.4696" y="446.0819"/><rect fill="#F8FBFF" height="2" style="stroke:#0072B2;stroke-width:0.5;" width="4" x="187.4696" y="450.0819"/><text fill="#000000" font-family="'Noto Sans CJK SC'" font-size="14" lengthAdjust="spacing" textLength="97.9996" x="86.47" y="475.3218">&#35748;&#35777;&#26435;&#38480;&#20013;&#38388;&#20214;</text></g><!--entity Route--><g class="entity" data-qualified-name="Route" data-source-line="24" id="ent0005"><rect fill="#F8FBFF" height="50.2719" rx="2.5" ry="2.5" style="stroke:#0072B2;stroke-width:0.5;" width="179.9994" x="167.47" y="569.3519"/><rect fill="#F8FBFF" height="10" style="stroke:#0072B2;stroke-width:0.5;" width="15" x="327.4694" y="574.3519"/><rect fill="#F8FBFF" height="2" style="stroke:#0072B2;stroke-width:0.5;" width="4" x="325.4694" y="576.3519"/><rect fill="#F8FBFF" height="2" style="stroke:#0072B2;stroke-width:0.5;" width="4" x="325.4694" y="580.3519"/><text fill="#000000" font-family="'Noto Sans CJK SC'" font-size="14" lengthAdjust="spacing" textLength="139.9994" x="182.47" y="605.5918">&#32451;&#20064;&#27979;&#35780;&#27169;&#22359;&#19994;&#21153;&#36335;&#30001;</text></g><!--entity Service--><g class="entity" data-qualified-name="Service" data-source-line="25" id="ent0006"><rect fill="#F8FBFF" height="50.2719" rx="2.5" ry="2.5" style="stroke:#0072B2;stroke-width:0.5;" width="165.9995" x="249.47" y="699.6319"/><rect fill="#F8FBFF" height="10" style="stroke:#0072B2;stroke-width:0.5;" width="15" x="395.4695" y="704.6319"/><rect fill="#F8FBFF" height="2" style="stroke:#0072B2;stroke-width:0.5;" width="4" x="393.4695" y="706.6319"/><rect fill="#F8FBFF" height="2" style="stroke:#0072B2;stroke-width:0.5;" width="4" x="393.4695" y="710.6319"/><text fill="#000000" font-family="'Noto Sans CJK SC'" font-size="14" lengthAdjust="spacing" textLength="125.9995" x="264.47" y="735.8718">&#19994;&#21153;&#26657;&#39564;&#19982;&#32467;&#26524;&#32452;&#35013;</text></g><!--entity DB--><g class="entity" data-qualified-name="DB" data-source-line="26" id="ent0007"><path d="M209.33,839.9019 C209.33,829.9019 332.4705,829.9019 332.4705,829.9019 C332.4705,829.9019 455.6111,829.9019 455.6111,839.9019 L455.6111,869.1738 C455.6111,879.1738 332.4705,879.1738 332.4705,879.1738 C332.4705,879.1738 209.33,879.1738 209.33,869.1738 L209.33,839.9019" fill="#F4FFF9" style="stroke:#009E73;stroke-width:0.5;"/><path d="M209.33,839.9019 C209.33,849.9019 332.4705,849.9019 332.4705,849.9019 C332.4705,849.9019 455.6111,849.9019 455.6111,839.9019" fill="none" style="stroke:#009E73;stroke-width:0.5;"/><text fill="#000000" font-family="'Noto Sans CJK SC'" font-size="14" lengthAdjust="spacing" textLength="226.2811" x="219.33" y="870.1418">practice_record&#12289;practice_answer</text></g><!--link UI to View--><g class="link" data-entity-1="ent0001" data-entity-2="ent0002" data-link-type="dependency" data-source-line="27" id="lnk8"><path d="M225.47,98.8319 C225.47,121.6619 225.47,150.5419 225.47,173.3419" fill="none" id="UI-to-View" style="stroke:#3C5488;stroke-width:1;"/><polygon fill="#3C5488" points="225.47,178.3419,229.47,169.3419,225.47,173.3419,221.47,169.3419,225.47,178.3419" style="stroke:#3C5488;stroke-width:1;stroke-linejoin:miter;stroke-miterlimit:10;"/><text fill="#000000" font-family="'Noto Sans CJK SC'" font-size="13" lengthAdjust="spacing" textLength="104.0001" x="226.47" y="144.6219">&#35302;&#21457;&#32451;&#20064;&#27979;&#35780;&#27169;&#22359;</text></g><!--link View to Client--><g class="link" data-entity-1="ent0002" data-entity-2="ent0003" data-link-type="dependency" data-source-line="28" id="lnk9"><path d="M134.99,220.7319 C94.62,229.9219 53.44,242.8119 41.47,258.8119 C30.79,273.0819 33.9502,288.4077 41.3602,303.9677" fill="none" id="View-to-Client" style="stroke:#3C5488;stroke-width:1;"/><polygon fill="#3C5488" points="43.51,308.4819,43.2518,298.6364,41.3602,303.9677,36.029,302.0761,43.51,308.4819" style="stroke:#3C5488;stroke-width:1;stroke-linejoin:miter;stroke-miterlimit:10;"/><text fill="#000000" font-family="'Noto Sans CJK SC'" font-size="13" lengthAdjust="spacing" textLength="338.0003" x="42.47" y="274.8919">&#32452;&#32455;&#36873;&#25321;&#39064;&#12289;&#21028;&#26029;&#39064;&#12289;&#22635;&#31354;&#39064;&#12289;&#32763;&#35793;&#39064;&#20986;&#39064;&#21644;&#25552;&#20132;&#21028;&#20998;&#35831;&#27714;</text></g><!--link Client to Auth--><g class="link" data-entity-1="ent0003" data-entity-2="ent0004" data-link-type="dependency" data-source-line="29" id="lnk10"><path d="M74.09,359.3819 C88.68,382.2019 107.6468,411.8792 122.2168,434.6692" fill="none" id="Client-to-Auth" style="stroke:#3C5488;stroke-width:1;"/><polygon fill="#3C5488" points="124.91,438.8819,123.4323,429.1445,122.2168,434.6692,116.6921,433.4537,124.91,438.8819" style="stroke:#3C5488;stroke-width:1;stroke-linejoin:miter;stroke-miterlimit:10;"/><text fill="#000000" font-family="'Noto Sans CJK SC'" font-size="13" lengthAdjust="spacing" textLength="115.6741" x="105.47" y="405.1619">&#35843;&#29992;/api/practice/*</text></g><!--link Auth to Route--><g class="link" data-entity-1="ent0004" data-entity-2="ent0005" data-link-type="dependency" data-source-line="30" id="lnk11"><path d="M162.75,489.6519 C183.57,512.4719 211.1103,542.668 231.9003,565.458" fill="none" id="Auth-to-Route" style="stroke:#3C5488;stroke-width:1;"/><polygon fill="#3C5488" points="235.27,569.1519,232.1596,559.8071,231.9003,565.458,226.2494,565.1987,235.27,569.1519" style="stroke:#3C5488;stroke-width:1;stroke-linejoin:miter;stroke-miterlimit:10;"/><text fill="#000000" font-family="'Noto Sans CJK SC'" font-size="13" lengthAdjust="spacing" textLength="52.0001" x="207.47" y="535.4319">&#26657;&#39564;&#36890;&#36807;</text></g><!--link Route to Service--><g class="link" data-entity-1="ent0005" data-entity-2="ent0006" data-link-type="dependency" data-source-line="31" id="lnk12"><path d="M271.76,619.9219 C285.1,642.7419 302.3856,672.316 315.7156,695.106" fill="none" id="Route-to-Service" style="stroke:#3C5488;stroke-width:1;"/><polygon fill="#3C5488" points="318.24,699.4219,317.1488,689.6337,315.7156,695.106,310.2433,693.6728,318.24,699.4219" style="stroke:#3C5488;stroke-width:1;stroke-linejoin:miter;stroke-miterlimit:10;"/><text fill="#000000" font-family="'Noto Sans CJK SC'" font-size="13" lengthAdjust="spacing" textLength="78.0001" x="300.47" y="665.7119">&#20998;&#21457;&#19994;&#21153;&#22788;&#29702;</text></g><!--link Service to DB--><g class="link" data-entity-1="ent0006" data-entity-2="ent0007" data-link-type="dependency" data-source-line="32" id="lnk13"><path d="M293.53,750.2119 C283.87,758.3619 274.77,768.3719 269.47,779.9019 C260.91,798.5519 270.8811,813.0594 287.7911,826.3694" fill="none" id="Service-to-DB" style="stroke:#3C5488;stroke-width:1;"/><polygon fill="#3C5488" points="291.72,829.4619,287.1219,820.7523,287.7911,826.3694,282.1739,827.0386,291.72,829.4619" style="stroke:#3C5488;stroke-width:1;stroke-linejoin:miter;stroke-miterlimit:10;"/><text fill="#000000" font-family="'Noto Sans CJK SC'" font-size="13" lengthAdjust="spacing" textLength="78.0001" x="270.47" y="795.9819">&#35835;&#20889;&#26680;&#24515;&#25968;&#25454;</text></g><!--link DB to Service--><g class="link" data-entity-1="ent0007" data-entity-2="ent0006" data-link-type="dependency" data-source-line="33" id="lnk14"><path d="M344.07,829.5419 C347.86,820.4719 351.58,809.9219 353.47,799.9019 C356.65,783.0719 353.3447,769.1482 347.2947,754.8182" fill="none" id="DB-to-Service" style="stroke:#3C5488;stroke-width:1;"/><polygon fill="#3C5488" points="345.35,750.2119,345.1655,760.059,347.2947,754.8182,352.5356,756.9475,345.35,750.2119" style="stroke:#3C5488;stroke-width:1;stroke-linejoin:miter;stroke-miterlimit:10;"/><text fill="#000000" font-family="'Noto Sans CJK SC'" font-size="13" lengthAdjust="spacing" textLength="52.0001" x="355.47" y="795.9819">&#36820;&#22238;&#35760;&#24405;</text></g><!--link Service to View--><g class="link" data-entity-1="ent0006" data-entity-2="ent0002" data-link-type="dependency" data-source-line="34" id="lnk15"><path d="M361.48,699.2419 C370.21,690.6319 379.14,680.4019 385.47,669.6319 C402.9,640.0019 407.47,629.8619 407.47,595.4919 C407.47,332.9519 407.47,332.9519 407.47,332.9519 C407.47,298.5819 409.31,283.5719 385.47,258.8119 C366.86,239.4819 345.8796,228.5523 320.4796,220.5623" fill="none" id="Service-to-View" style="stroke:#3C5488;stroke-width:1;"/><polygon fill="#3C5488" points="315.71,219.0619,323.095,225.5782,320.4796,220.5623,325.4955,217.9469,315.71,219.0619" style="stroke:#3C5488;stroke-width:1;stroke-linejoin:miter;stroke-miterlimit:10;"/><text fill="#000000" font-family="'Noto Sans CJK SC'" font-size="13" lengthAdjust="spacing" textLength="78.0001" x="408.47" y="470.3019">&#36820;&#22238;&#23637;&#31034;&#32467;&#26524;</text></g><?plantuml-src XPHTJzfG6CVl-obEy6w9yNKHTx54S4tS5cD6tEroB4Tjn9QrHR8x6FWw6J1XpjU9CgSpM4ccCXlbmwodFVqMEst1rU4mWUJ9y_yzh-USAhmIGS3QsSUvFBbOmPbrixY1AuTcuQkvcRRMabPoJQ_HtwPHNQQ0iQqIjMBMDQBcAQR_sYFNggvTc5gAsiRv1wAcZQCItbatjJJruqnMlzx6MpUCFCCBKIZ1MH16ap0MKLXHK4RXB0A-KL4HGGWACWW-Vm52GPy7bgTXM8ppmXIOX14PUPG9oCrCIM9C20V5Y2Y1-3IlUFKXIHBZhjJH5tpSx_TxHKuHfO0eXP7K5h6RR00zFJt-tW4FC2uZ3iheJfRkxe7UGEyzq3_DTh1-Di2o7Z0epaP50GbA-tn_iGSp3aC5JhGsEFXieEy-gYLVFykoWnuoXDx6aC2Xb_ma_Gke_Vh6eAJm71-53qta1H-SYHuAFyShxzgdlAN-au_Xcbi4FlUoMwLp-n7CVyFP0n-0CXWVyKAjrnilPymJrKfev2Rl1BpcKTmRCZGs0e8HdjgEx9fUW9oMYPeqTbBMHawlLQprd_IzEEnGJ9bkNvs-HxnI8fUgMQWw8Q_46BtydXYNCFPArezLlVRHrDQCtMtw9id1l1CGGj8Spo4ct3X-u8jAaAwDGsyanD7j_auaRptqQSQHvCGD1vZn4T3P-TGP63m1vFiXpkPRMsGStGRTqIbAovlQefLODZuSM_jVQ0MyL3O-LnfswSGyld9jzmD3RRneU_2dLIERqw_AbCTB2qIzDAhlcKPUkuIzCRkNivHPEEg2KRwhsNlN8yOHRSfP4iNShLY9JL9VP5odBJTMGW5QWyxahX2NqsPkWMcADZWSi6kf6bxOCFPgk9uoYcT6vfIX_hjvIBs0jtR9wHc-Bjx9qDoTe-DgqInVkIVq1m00?></g></svg>