<svg xmlns="http://www.w3.org/2000/svg" xmlns:xlink="http://www.w3.org/1999/xlink" contentStyleType="text/css" data-diagram-type="DESCRIPTION" height="439px" preserveAspectRatio="none" style="width:460px;height:439px;background:#FFFFFF;" version="1.1" viewBox="0 0 460 439" width="460px" zoomAndPan="magnify"><?plantuml 1.2026.5?><defs/><g><g class="title" data-source-line="1"><text fill="#000000" font-family="'Noto Sans CJK SC'" font-size="14" font-weight="700" lengthAdjust="spacing" textLength="433.9981" x="10" y="26.2399">&#38754;&#21521;&#36234;&#21335;&#30041;&#23398;&#29983;&#30340;&#38081;&#36947;&#19987;&#19994;&#27721;&#36234;&#26415;&#35821;&#32763;&#35793;&#23398;&#20064;&#36719;&#20214;&#23398;&#20064;&#20998;&#26512;&#27169;&#22359;&#29992;&#20363;&#22270;</text></g><!--cluster ??????--><g class="cluster" data-qualified-name="......" data-source-line="23" id="ent0003"><rect fill="none" height="377" rx="2.5" ry="2.5" style="stroke:#181818;stroke-width:1;" width="210.84" x="171.0791" y="48.2719"/><text fill="#000000" font-family="'Noto Sans CJK SC'" font-size="14" font-weight="700" lengthAdjust="spacing" textLength="83.9996" x="234.4992" y="66.5118">&#23398;&#20064;&#20998;&#26512;&#27169;&#22359;</text></g><!--entity UC5_0--><g class="entity" data-qualified-name=".......UC5_0" data-source-line="24" id="ent0004"><ellipse cx="276.4969" cy="244.2763" fill="#F8FBFF" rx="42.5978" ry="17.3344" style="stroke:#0072B2;stroke-width:0.5;"/><text fill="#000000" font-family="'Noto Sans CJK SC'" font-size="14" lengthAdjust="spacing" textLength="55.9998" x="248.497" y="250.9123">&#32451;&#20064;&#32479;&#35745;</text></g><!--entity UC5_1--><g class="entity" data-qualified-name=".......UC5_1" data-source-line="25" id="ent0005"><ellipse cx="276.4974" cy="174.2763" fill="#F8FBFF" rx="32.6984" ry="17.3344" style="stroke:#0072B2;stroke-width:0.5;"/><text fill="#000000" font-family="'Noto Sans CJK SC'" font-size="14" lengthAdjust="spacing" textLength="41.9998" x="255.4975" y="180.9123">&#27491;&#30830;&#29575;</text></g><!--entity UC5_2--><g class="entity" data-qualified-name=".......UC5_2" data-source-line="26" id="ent0006"><ellipse cx="276.4969" cy="104.2763" fill="#F8FBFF" rx="42.5978" ry="17.3344" style="stroke:#0072B2;stroke-width:0.5;"/><text fill="#000000" font-family="'Noto Sans CJK SC'" font-size="14" lengthAdjust="spacing" textLength="55.9998" x="248.497" y="110.9123">&#20998;&#31867;&#36235;&#21183;</text></g><!--entity UC5_3--><g class="entity" data-qualified-name=".......UC5_3" data-source-line="27" id="ent0007"><ellipse cx="276.4989" cy="389.2759" fill="#F8FBFF" rx="89.4199" ry="20.284" style="stroke:#0072B2;stroke-width:0.5;"/><text fill="#000000" font-family="'Noto Sans CJK SC'" font-size="14" lengthAdjust="spacing" textLength="139.9994" x="206.4992" y="395.9118">&#38169;&#39064;&#32479;&#35745;&#21644;&#31649;&#29702;&#31471;&#27719;&#24635;</text></g><!--entity UC5_api--><g class="entity" data-qualified-name=".......UC5_api" data-source-line="28" id="ent0008"><ellipse cx="276.497" cy="315.2675" fill="#F8FBFF" rx="79.2779" ry="18.2556" style="stroke:#0072B2;stroke-width:0.5;"/><text fill="#000000" font-family="'Noto Sans CJK SC'" font-size="14" lengthAdjust="spacing" textLength="114.0155" x="219.4892" y="321.9035">&#35775;&#38382;analysis/&#25509;&#21475;</text></g><!--entity Student--><g class="entity" data-qualified-name="Student" data-source-line="21" id="ent0001"><ellipse cx="99.0789" cy="155.6319" fill="#F1F1F1" rx="8" ry="8" style="stroke:#3C5488;stroke-width:0.5;"/><path d="M99.0789,163.6319 L99.0789,190.6319 M86.0789,171.6319 L112.0789,171.6319 M99.0789,190.6319 L86.0789,205.6319 M99.0789,190.6319 L112.0789,205.6319" fill="none" style="stroke:#3C5488;stroke-width:0.5;"/><text fill="#111827" font-family="'Noto Sans CJK SC'" font-size="14" lengthAdjust="spacing" textLength="55.9998" x="71.0791" y="223.3718">&#23398;&#29983;&#29992;&#25143;</text></g><!--entity Admin--><g class="entity" data-qualified-name="Admin" data-source-line="22" id="ent0002"><ellipse cx="99.079" cy="270.6319" fill="#F1F1F1" rx="8" ry="8" style="stroke:#3C5488;stroke-width:0.5;"/><path d="M99.079,278.6319 L99.079,305.6319 M86.079,286.6319 L112.079,286.6319 M99.079,305.6319 L86.079,320.6319 M99.079,305.6319 L112.079,320.6319" fill="none" style="stroke:#3C5488;stroke-width:0.5;"/><text fill="#111827" font-family="'Noto Sans CJK SC'" font-size="14" lengthAdjust="spacing" textLength="41.9998" x="78.0791" y="338.3718">&#31649;&#29702;&#21592;</text></g><!--link Student to UC5_0--><g class="link" data-entity-1="ent0001" data-entity-2="ent0004" data-link-type="dependency" data-source-line="30" id="lnk9"><path d="M127.2991,197.0019 C138.3691,200.9019 151.3091,205.3819 163.0791,209.2719 C189.2791,217.9219 214.3267,225.7226 236.6767,232.5426" fill="none" id="Student-to-UC5_0" style="stroke:#3C5488;stroke-width:1;"/><polygon fill="#3C5488" points="241.4591,234.0019,234.0183,227.5493,236.6767,232.5426,231.6835,235.201,241.4591,234.0019" style="stroke:#3C5488;stroke-width:1;stroke-linejoin:miter;stroke-miterlimit:10;"/></g><!--link Student to UC5_1--><g class="link" data-entity-1="ent0001" data-entity-2="ent0005" data-link-type="dependency" data-source-line="31" id="lnk10"><path d="M127.4891,185.2419 C158.9991,182.9019 205.6427,179.4514 238.8427,176.9914" fill="none" id="Student-to-UC5_1" style="stroke:#3C5488;stroke-width:1;"/><polygon fill="#3C5488" points="243.8291,176.6219,234.5581,173.2979,238.8427,176.9914,235.1492,181.276,243.8291,176.6219" style="stroke:#3C5488;stroke-width:1;stroke-linejoin:miter;stroke-miterlimit:10;"/></g><!--link Student to UC5_2--><g class="link" data-entity-1="ent0001" data-entity-2="ent0006" data-link-type="dependency" data-source-line="32" id="lnk11"><path d="M127.5091,163.0419 C138.0791,154.6319 150.6191,145.7019 163.0791,139.2719 C186.8791,126.9919 210.9138,119.3463 233.4438,113.6063" fill="none" id="Student-to-UC5_2" style="stroke:#3C5488;stroke-width:1;"/><polygon fill="#3C5488" points="238.2891,112.3719,228.5801,110.7177,233.4438,113.6063,230.5552,118.4701,238.2891,112.3719" style="stroke:#3C5488;stroke-width:1;stroke-linejoin:miter;stroke-miterlimit:10;"/></g><!--link Student to UC5_3--><g class="link" data-entity-1="ent0001" data-entity-2="ent0007" data-link-type="dependency" data-source-line="33" id="lnk12"><path d="M119.9891,227.8019 C122.4791,233.2919 124.9091,238.8919 127.0791,244.2719 C145.8491,290.8019 127.6291,315.7719 163.0791,351.2719 C174.7291,362.9319 185.3631,369.3326 200.9631,374.9326" fill="none" id="Student-to-UC5_3" style="stroke:#3C5488;stroke-width:1;"/><polygon fill="#3C5488" points="205.6691,376.6219,198.5498,369.8164,200.9631,374.9326,195.8468,377.3459,205.6691,376.6219" style="stroke:#3C5488;stroke-width:1;stroke-linejoin:miter;stroke-miterlimit:10;"/></g><!--link Student to UC5_api--><g class="link" data-entity-1="ent0001" data-entity-2="ent0008" data-link-type="dependency" data-source-line="34" id="lnk13"><path d="M119.8391,227.6919 C130.4491,245.7119 145.0691,265.8619 163.0791,279.2719 C178.0391,290.4119 191.7866,296.7231 209.4566,302.1131" fill="none" id="Student-to-UC5_api" style="stroke:#3C5488;stroke-width:1;"/><polygon fill="#3C5488" points="214.2391,303.5719,206.7977,297.1201,209.4566,302.1131,204.4636,304.772,214.2391,303.5719" style="stroke:#3C5488;stroke-width:1;stroke-linejoin:miter;stroke-miterlimit:10;"/></g><!--link Admin to UC5_0--><g class="link" data-entity-1="ent0002" data-entity-2="ent0004" data-link-type="dependency" data-source-line="35" id="lnk14"><path d="M120.4191,294.5619 C132.7191,289.9719 148.7391,284.1219 163.0791,279.2719 C189.2191,270.4319 214.2736,262.6308 236.6336,255.8608" fill="none" id="Admin-to-UC5_0" style="stroke:#3C5488;stroke-width:1;"/><polygon fill="#3C5488" points="241.4191,254.4119,231.6461,253.1916,236.6336,255.8608,233.9643,260.8483,241.4191,254.4119" style="stroke:#3C5488;stroke-width:1;stroke-linejoin:miter;stroke-miterlimit:10;"/></g><!--link Admin to UC5_1--><g class="link" data-entity-1="ent0002" data-entity-2="ent0005" data-link-type="dependency" data-source-line="36" id="lnk15"><path d="M119.4291,261.8219 C130.0291,243.4719 144.7591,222.8719 163.0791,209.2719 C187.0391,191.4819 215.3186,183.49 239.4186,179.14" fill="none" id="Admin-to-UC5_1" style="stroke:#3C5488;stroke-width:1;"/><polygon fill="#3C5488" points="244.3391,178.2519,234.7717,175.9142,239.4186,179.14,236.1927,183.787,244.3391,178.2519" style="stroke:#3C5488;stroke-width:1;stroke-linejoin:miter;stroke-miterlimit:10;"/></g><!--link Admin to UC5_2--><g class="link" data-entity-1="ent0002" data-entity-2="ent0006" data-link-type="dependency" data-source-line="37" id="lnk16"><path d="M119.9791,261.7319 C122.4691,256.2419 124.8991,250.6519 127.0791,245.2719 C145.7591,199.1619 127.4491,174.0019 163.0791,139.2719 C182.1091,120.7219 205.8729,112.8484 229.5129,108.7384" fill="none" id="Admin-to-UC5_2" style="stroke:#3C5488;stroke-width:1;"/><polygon fill="#3C5488" points="234.4391,107.8819,224.8869,105.4826,229.5129,108.7384,226.2572,113.3644,234.4391,107.8819" style="stroke:#3C5488;stroke-width:1;stroke-linejoin:miter;stroke-miterlimit:10;"/></g><!--link Admin to UC5_3--><g class="link" data-entity-1="ent0002" data-entity-2="ent0007" data-link-type="dependency" data-source-line="38" id="lnk17"><path d="M120.4191,320.9519 C132.1991,331.0019 147.6991,343.0019 163.0791,351.2719 C179.9491,360.3519 194.6472,366.2862 212.5772,372.1562" fill="none" id="Admin-to-UC5_3" style="stroke:#3C5488;stroke-width:1;"/><polygon fill="#3C5488" points="217.3291,373.7119,210.0203,367.1102,212.5772,372.1562,207.5312,374.7132,217.3291,373.7119" style="stroke:#3C5488;stroke-width:1;stroke-linejoin:miter;stroke-miterlimit:10;"/></g><!--link Admin to UC5_api--><g class="link" data-entity-1="ent0002" data-entity-2="ent0008" data-link-type="dependency" data-source-line="39" id="lnk18"><path d="M120.5491,303.7919 C140.2491,305.2519 166.2726,307.1839 195.4026,309.3339" fill="none" id="Admin-to-UC5_api" style="stroke:#3C5488;stroke-width:1;"/><polygon fill="#3C5488" points="200.3891,309.7019,191.7079,305.0503,195.4026,309.3339,191.119,313.0286,200.3891,309.7019" style="stroke:#3C5488;stroke-width:1;stroke-linejoin:miter;stroke-miterlimit:10;"/></g><?plantuml-src XPDTRn9158RlzrTCjjUDxD86UcDIqBrGqvYGNfifEy2aompk3fB6cDXesjhM2XP3MwsLDXeI0uGRr6miVuRz-XSE7-AKhP3i9dlE-vntpvoPOPWP20JdbqwvudVtdRSrxyEfq_pcLI-yizV1yNQmVTp_oPypj_E60-wdjjzkUZtRRrSurl_rnV_TxjlTqRUpj-D-BhkDkdDUywgD_lM1y_5QiZOnAK0Jve6ECh1eC8qIjWRp2CXhb56GWiG2oGSFGIef2x2LWpejOP856MXOI50sO7epQz8YqPFKe2OevJ0JzLNJfAMHj11DBY_5uwAOPjHCK5D7vanaqEGOK1GbhiO4ODr2QMYX6owHI4nDgBT0KyqkQ74jeMa2cAJv0YM8iDb-_x2vZlSWWnlX1bVknwAtKI6_9KtJLWGoXPuM4KcZHpZ3Nu9cZ-ynD1bEumASjo8HdBiclYdu6MPRioqdr7_y90Db6E27piJP70CwDX6le4I2Wpq7ylZeLnlktWyPG0kaM57dC_-hUwswLzvnAYT3SLNFOo8DB239ydiaXw-139vB01H7Pu7NswyuuDaNVgi-j5XFBZ-9Y8JRlFBgBUzeTo8heiozlOxjTm-S_Tw4K4KYg9u6boUZNpZl3qSTUz_RRcVNVMbFQg9YZT_g1RKM9D3Oih1rnptwwhoxcg2mWAKNqdWIO77nxhZhwOmIogYXJ3IK6RWF1oautuoLgLYTYgDJCNVy0m00?></g></svg>