<svg xmlns="http://www.w3.org/2000/svg" xmlns:xlink="http://www.w3.org/1999/xlink" contentStyleType="text/css" data-diagram-type="STATE" height="955px" preserveAspectRatio="none" style="width:811px;height:955px;background:#FFFFFF;" version="1.1" viewBox="0 0 811 955" width="811px" zoomAndPan="magnify"><?plantuml 1.2026.5?><defs/><g><g class="title" data-source-line="1"><text fill="#000000" font-family="'Noto Sans CJK SC'" font-size="14" font-weight="700" lengthAdjust="spacing" textLength="433.9981" x="185.001" y="26.2399">&#38754;&#21521;&#36234;&#21335;&#30041;&#23398;&#29983;&#30340;&#38081;&#36947;&#19987;&#19994;&#27721;&#36234;&#26415;&#35821;&#32763;&#35793;&#23398;&#20064;&#36719;&#20214;&#31995;&#32479;&#31649;&#29702;&#27169;&#22359;&#29366;&#24577;&#22270;</text></g><g class="start_entity" data-qualified-name=".start." data-source-line="20" id="ent0001"><ellipse cx="609" cy="57.2719" fill="#222222" rx="10" ry="10" style="stroke:#222222;stroke-width:1;"/></g><g class="entity" data-qualified-name="....." data-source-line="20" id="ent0002"><rect fill="#F1F1F1" height="50" rx="12.5" ry="12.5" style="stroke:#181818;stroke-width:0.5;" width="89.9997" x="564" y="128.2719"/><line style="stroke:#181818;stroke-width:0.5;" x1="564" x2="653.9997" y1="158.5438" y2="158.5438"/><text fill="#000000" font-family="'Noto Sans CJK SC'" font-size="14" lengthAdjust="spacing" textLength="69.9997" x="574" y="149.5118">&#39029;&#38754;&#24453;&#35775;&#38382;</text></g><g class="entity" data-qualified-name="...." data-source-line="21" id="ent0004"><rect fill="#F1F1F1" height="50" rx="12.5" ry="12.5" style="stroke:#181818;stroke-width:0.5;" width="75.9998" x="203" y="258.2719"/><line style="stroke:#181818;stroke-width:0.5;" x1="203" x2="278.9998" y1="288.5438" y2="288.5438"/><text fill="#000000" font-family="'Noto Sans CJK SC'" font-size="14" lengthAdjust="spacing" textLength="55.9998" x="213" y="279.5118">&#20250;&#35805;&#26816;&#26597;</text></g><g class="entity" data-qualified-name="...." data-source-line="22" id="ent0006"><rect fill="#F1F1F1" height="50" rx="12.5" ry="12.5" style="stroke:#181818;stroke-width:0.5;" width="75.9998" x="7" y="468.2719"/><line style="stroke:#181818;stroke-width:0.5;" x1="7" x2="82.9998" y1="498.5438" y2="498.5438"/><text fill="#000000" font-family="'Noto Sans CJK SC'" font-size="14" lengthAdjust="spacing" textLength="55.9998" x="17" y="489.5118">&#26435;&#38480;&#19981;&#36275;</text></g><g class="entity" data-qualified-name="...." data-source-line="23" id="ent0008"><rect fill="#F1F1F1" height="50" rx="12.5" ry="12.5" style="stroke:#181818;stroke-width:0.5;" width="75.9998" x="203" y="388.2719"/><line style="stroke:#181818;stroke-width:0.5;" x1="203" x2="278.9998" y1="418.5438" y2="418.5438"/><text fill="#000000" font-family="'Noto Sans CJK SC'" font-size="14" lengthAdjust="spacing" textLength="55.9998" x="213" y="409.5118">&#25968;&#25454;&#21152;&#36733;</text></g><g class="entity" data-qualified-name="...." data-source-line="24" id="ent0010"><rect fill="#F1F1F1" height="50" rx="12.5" ry="12.5" style="stroke:#181818;stroke-width:0.5;" width="75.9998" x="203" y="548.2719"/><line style="stroke:#181818;stroke-width:0.5;" x1="203" x2="278.9998" y1="578.5438" y2="578.5438"/><text fill="#000000" font-family="'Noto Sans CJK SC'" font-size="14" lengthAdjust="spacing" textLength="55.9998" x="213" y="569.5118">&#21442;&#25968;&#26657;&#39564;</text></g><g class="entity" data-qualified-name="....." data-source-line="25" id="ent0012"><rect fill="#F1F1F1" height="50" rx="12.5" ry="12.5" style="stroke:#181818;stroke-width:0.5;" width="89.9997" x="209" y="678.2719"/><line style="stroke:#181818;stroke-width:0.5;" x1="209" x2="298.9997" y1="708.5438" y2="708.5438"/><text fill="#000000" font-family="'Noto Sans CJK SC'" font-size="14" lengthAdjust="spacing" textLength="69.9997" x="219" y="699.5118">&#19994;&#21153;&#22788;&#29702;&#20013;</text></g><g class="entity" data-qualified-name="...." data-source-line="26" id="ent0014"><rect fill="#F1F1F1" height="50" rx="12.5" ry="12.5" style="stroke:#181818;stroke-width:0.5;" width="75.9998" x="140" y="808.2719"/><line style="stroke:#181818;stroke-width:0.5;" x1="140" x2="215.9998" y1="838.5438" y2="838.5438"/><text fill="#000000" font-family="'Noto Sans CJK SC'" font-size="14" lengthAdjust="spacing" textLength="55.9998" x="150" y="829.5118">&#24322;&#24120;&#25552;&#31034;</text></g><g class="entity" data-qualified-name="...." data-source-line="27" id="ent0016"><rect fill="#F1F1F1" height="50" rx="12.5" ry="12.5" style="stroke:#181818;stroke-width:0.5;" width="75.9998" x="273" y="808.2719"/><line style="stroke:#181818;stroke-width:0.5;" x1="273" x2="348.9998" y1="838.5438" y2="838.5438"/><text fill="#000000" font-family="'Noto Sans CJK SC'" font-size="14" lengthAdjust="spacing" textLength="55.9998" x="283" y="829.5118">&#32467;&#26524;&#23637;&#31034;</text></g><g class="end_entity" data-qualified-name=".end." data-source-line="31" id="ent0021"><ellipse cx="52" cy="930.2719" fill="none" rx="11" ry="11" style="stroke:#222222;stroke-width:1;"/><ellipse cx="52" cy="930.2719" fill="#222222" rx="6" ry="6" style="stroke:#222222;stroke-width:1;"/></g><!--link *start* to ?????--><g class="link" data-entity-1="ent0001" data-entity-2="ent0002" data-link-type="dependency" data-source-line="20" id="lnk3"><path d="M609,67.6319 C609,81.5619 609,103.2219 609,122.9219" fill="none" id="*start*-to-&#39029;&#38754;&#24453;&#35775;&#38382;" style="stroke:#3C5488;stroke-width:1;"/><polygon fill="#3C5488" points="609,127.9219,613,118.9219,609,122.9219,605,118.9219,609,127.9219" style="stroke:#3C5488;stroke-width:1;stroke-linejoin:miter;stroke-miterlimit:10;"/></g><!--link ????? to ????--><g class="link" data-entity-1="ent0002" data-entity-2="ent0004" data-link-type="dependency" data-source-line="21" id="lnk5"><path d="M563.67,169.6419 C532.06,180.3819 488.93,195.1119 451,208.2719 C390.93,229.1219 326.0621,252.0597 283.9921,266.9897" fill="none" id="&#39029;&#38754;&#24453;&#35775;&#38382;-to-&#20250;&#35805;&#26816;&#26597;" style="stroke:#3C5488;stroke-width:1;"/><polygon fill="#3C5488" points="279.28,268.6619,289.0995,269.4215,283.9921,266.9897,286.4239,261.8822,279.28,268.6619" style="stroke:#3C5488;stroke-width:1;stroke-linejoin:miter;stroke-miterlimit:10;"/><text fill="#000000" font-family="'Noto Sans CJK SC'" font-size="13" lengthAdjust="spacing" textLength="130.0002" x="452" y="224.3519">&#31649;&#29702;&#21592;&#12289;&#25945;&#24072;&#36827;&#20837;&#39029;&#38754;</text></g><!--link ???? to ????--><g class="link" data-entity-1="ent0004" data-entity-2="ent0006" data-link-type="dependency" data-source-line="22" id="lnk7"><path d="M202.67,303.2519 C186.3,312.4619 167.62,324.5219 153,338.2719 C111.25,377.5419 78.4194,430.9718 60.3694,463.4418" fill="none" id="&#20250;&#35805;&#26816;&#26597;-to-&#26435;&#38480;&#19981;&#36275;" style="stroke:#3C5488;stroke-width:1;"/><polygon fill="#3C5488" points="57.94,467.8119,65.809,461.8891,60.3694,463.4418,58.8167,458.0022,57.94,467.8119" style="stroke:#3C5488;stroke-width:1;stroke-linejoin:miter;stroke-miterlimit:10;"/><text fill="#000000" font-family="'Noto Sans CJK SC'" font-size="13" lengthAdjust="spacing" textLength="78.0001" x="154" y="354.3519">&#26410;&#30331;&#24405;&#25110;&#36234;&#26435;</text></g><!--link ???? to ????--><g class="link" data-entity-1="ent0004" data-entity-2="ent0008" data-link-type="dependency" data-source-line="23" id="lnk9"><path d="M241,308.6519 C241,331.4219 241,360.2419 241,382.9819" fill="none" id="&#20250;&#35805;&#26816;&#26597;-to-&#25968;&#25454;&#21152;&#36733;" style="stroke:#3C5488;stroke-width:1;"/><polygon fill="#3C5488" points="241,387.9819,245,378.9819,241,382.9819,237,378.9819,241,387.9819" style="stroke:#3C5488;stroke-width:1;stroke-linejoin:miter;stroke-miterlimit:10;"/><text fill="#000000" font-family="'Noto Sans CJK SC'" font-size="13" lengthAdjust="spacing" textLength="52.0001" x="242" y="354.3519">&#26435;&#38480;&#36890;&#36807;</text></g><!--link ???? to ????--><g class="link" data-entity-1="ent0008" data-entity-2="ent0010" data-link-type="dependency" data-source-line="24" id="lnk11"><path d="M241,438.6119 C241,468.3019 241,513.2019 241,542.9019" fill="none" id="&#25968;&#25454;&#21152;&#36733;-to-&#21442;&#25968;&#26657;&#39564;" style="stroke:#3C5488;stroke-width:1;"/><polygon fill="#3C5488" points="241,547.9019,245,538.9019,241,542.9019,237,538.9019,241,547.9019" style="stroke:#3C5488;stroke-width:1;stroke-linejoin:miter;stroke-miterlimit:10;"/><text fill="#000000" font-family="'Noto Sans CJK SC'" font-size="13" lengthAdjust="spacing" textLength="91.0001" x="242" y="499.3519">&#25552;&#20132;&#26597;&#35810;&#25110;&#34920;&#21333;</text></g><!--link ???? to ?????--><g class="link" data-entity-1="ent0010" data-entity-2="ent0012" data-link-type="dependency" data-source-line="25" id="lnk13"><path d="M243.48,598.6519 C245.79,621.4219 248.7147,650.2675 251.0247,673.0075" fill="none" id="&#21442;&#25968;&#26657;&#39564;-to-&#19994;&#21153;&#22788;&#29702;&#20013;" style="stroke:#3C5488;stroke-width:1;"/><polygon fill="#3C5488" points="251.53,677.9819,254.6,668.6237,251.0247,673.0075,246.6409,669.4322,251.53,677.9819" style="stroke:#3C5488;stroke-width:1;stroke-linejoin:miter;stroke-miterlimit:10;"/><text fill="#000000" font-family="'Noto Sans CJK SC'" font-size="13" lengthAdjust="spacing" textLength="52.0001" x="250" y="644.3519">&#21442;&#25968;&#26377;&#25928;</text></g><!--link ???? to ????--><g class="link" data-entity-1="ent0010" data-entity-2="ent0014" data-link-type="dependency" data-source-line="26" id="lnk15"><path d="M205.06,598.7119 C181.07,617.3519 151.54,645.3719 138,678.2719 C119.87,722.3419 141.8376,772.6132 159.7176,803.5432" fill="none" id="&#21442;&#25968;&#26657;&#39564;-to-&#24322;&#24120;&#25552;&#31034;" style="stroke:#3C5488;stroke-width:1;"/><polygon fill="#3C5488" points="162.22,807.8719,161.1787,798.0783,159.7176,803.5432,154.2527,802.082,162.22,807.8719" style="stroke:#3C5488;stroke-width:1;stroke-linejoin:miter;stroke-miterlimit:10;"/><text fill="#000000" font-family="'Noto Sans CJK SC'" font-size="13" lengthAdjust="spacing" textLength="52.0001" x="139" y="709.3519">&#21442;&#25968;&#32570;&#22833;</text></g><!--link ????? to ????--><g class="link" data-entity-1="ent0012" data-entity-2="ent0016" data-link-type="dependency" data-source-line="27" id="lnk17"><path d="M264.86,728.6519 C275,751.4219 288.0271,780.6738 298.1471,803.4138" fill="none" id="&#19994;&#21153;&#22788;&#29702;&#20013;-to-&#32467;&#26524;&#23637;&#31034;" style="stroke:#3C5488;stroke-width:1;"/><polygon fill="#3C5488" points="300.18,807.9819,300.1752,798.1331,298.1471,803.4138,292.8663,801.3857,300.18,807.9819" style="stroke:#3C5488;stroke-width:1;stroke-linejoin:miter;stroke-miterlimit:10;"/><text fill="#000000" font-family="'Noto Sans CJK SC'" font-size="13" lengthAdjust="spacing" textLength="273.0003" x="287" y="774.3519">&#29992;&#25143;&#12289;&#35282;&#33394;&#12289;&#30331;&#24405;&#26085;&#24535;&#21644;&#25805;&#20316;&#26085;&#24535;&#26597;&#35810;&#31649;&#29702;&#25104;&#21151;</text></g><!--link ????? to ????--><g class="link" data-entity-1="ent0012" data-entity-2="ent0014" data-link-type="dependency" data-source-line="28" id="lnk18"><path d="M208.7,726.7819 C196.92,734.9919 185.67,745.4619 179,758.2719 C171.11,773.4319 170.5428,787.8489 172.3928,802.9689" fill="none" id="&#19994;&#21153;&#22788;&#29702;&#20013;-to-&#24322;&#24120;&#25552;&#31034;" style="stroke:#3C5488;stroke-width:1;"/><polygon fill="#3C5488" points="173,807.9319,175.8774,798.5127,172.3928,802.9689,167.9366,799.4843,173,807.9319" style="stroke:#3C5488;stroke-width:1;stroke-linejoin:miter;stroke-miterlimit:10;"/><text fill="#000000" font-family="'Noto Sans CJK SC'" font-size="13" lengthAdjust="spacing" textLength="91.0001" x="180" y="774.3519">&#25509;&#21475;&#25110;&#25968;&#25454;&#24322;&#24120;</text></g><!--link ???? to ?????--><g class="link" data-entity-1="ent0016" data-entity-2="ent0002" data-link-type="dependency" data-source-line="29" id="lnk19"><path d="M349.38,829.0219 C424.13,822.1819 586.17,804.7219 635,778.2719 C674.28,757.0019 703,748.9419 703,704.2719 C703,282.2719 703,282.2719 703,282.2719 C703,239.6719 672.5557,205.1266 645.4057,181.8466" fill="none" id="&#32467;&#26524;&#23637;&#31034;-to-&#39029;&#38754;&#24453;&#35775;&#38382;" style="stroke:#3C5488;stroke-width:1;"/><polygon fill="#3C5488" points="641.61,178.5919,645.8385,187.4868,645.4057,181.8466,651.046,181.4137,641.61,178.5919" style="stroke:#3C5488;stroke-width:1;stroke-linejoin:miter;stroke-miterlimit:10;"/><text fill="#000000" font-family="'Noto Sans CJK SC'" font-size="13" lengthAdjust="spacing" textLength="91.0001" x="704" y="499.3519">&#20999;&#25442;&#39029;&#38754;&#25110;&#21047;&#26032;</text></g><!--link ???? to ?????--><g class="link" data-entity-1="ent0014" data-entity-2="ent0002" data-link-type="dependency" data-source-line="30" id="lnk20"><path d="M216.48,818.7319 C228.95,814.8119 242.94,810.8819 256,808.2719 C416.39,776.2519 609,867.8319 609,704.2719 C609,282.2719 609,282.2719 609,282.2719 C609,246.0519 609,209.0619 609,183.3319" fill="none" id="&#24322;&#24120;&#25552;&#31034;-to-&#39029;&#38754;&#24453;&#35775;&#38382;" style="stroke:#3C5488;stroke-width:1;"/><polygon fill="#3C5488" points="609,178.3319,605,187.3319,609,183.3319,613,187.3319,609,178.3319" style="stroke:#3C5488;stroke-width:1;stroke-linejoin:miter;stroke-miterlimit:10;"/><text fill="#000000" font-family="'Noto Sans CJK SC'" font-size="13" lengthAdjust="spacing" textLength="52.0001" x="610" y="499.3519">&#37325;&#26032;&#25805;&#20316;</text></g><!--link ???? to *end*--><g class="link" data-entity-1="ent0006" data-entity-2="ent0021" data-link-type="dependency" data-source-line="31" id="lnk22"><path d="M41.41,518.7519 C37.57,547.1819 32,595.5119 32,637.2719 C32,637.2719 32,637.2719 32,834.2719 C32,865.9619 41.2005,897.6013 46.9305,914.6913" fill="none" id="&#26435;&#38480;&#19981;&#36275;-to-*end*" style="stroke:#3C5488;stroke-width:1;"/><polygon fill="#3C5488" points="48.52,919.4319,49.4515,909.6272,46.9305,914.6913,41.8665,912.1703,48.52,919.4319" style="stroke:#3C5488;stroke-width:1;stroke-linejoin:miter;stroke-miterlimit:10;"/></g><!--link ???? to *end*--><g class="link" data-entity-1="ent0016" data-entity-2="ent0021" data-link-type="dependency" data-source-line="32" id="lnk23"><path d="M272.5,848.3919 C211.63,870.7219 101.1942,911.2302 66.7042,923.8802" fill="none" id="&#32467;&#26524;&#23637;&#31034;-to-*end*" style="stroke:#3C5488;stroke-width:1;"/><polygon fill="#3C5488" points="62.01,925.6019,71.837,926.2582,66.7042,923.8802,69.0822,918.7475,62.01,925.6019" style="stroke:#3C5488;stroke-width:1;stroke-linejoin:miter;stroke-miterlimit:10;"/></g><?plantuml-src XPHTJzfG6CVl-oaQlLjYujiYxcB9PEl5jfWbPbVBBevGj15QLkh8xi2NKOcT8283OGZ2Ham4dHbs8F9XrdDE-orsIebhWM7I9Ztd-Vt_vtcUSqubJlApj54emqHIRyQXai7fBBpuZe-AEBTZfA96DAMfvCcXgpq2e7n3RrpWRbjl90cc_JxLEmsjtSJNRTmkude99pwZMWaMCZZUH94eFBcZGXiS7mGY2D1UrWSs_H8ZyD8o2B3qnB8W2VGAu4Eq--KhUiKzOOD3wy0hX3b-ZVO1VuYrHLQ1PsDD53Pvhrlm2o8TNkSaU_oPA0fXApGvvtuyxtBPWnv949S4qSkAOn4poJumCpFZcbsm0Mz3h0U4M8VBzFJ2xDBi26WWsKd6nImnZ0rq2u6WmBEyDDxl7_QWutCWWTNX11TVBCoDeeRyvXc6MRIHA-o7JPRtiAyv7tbvTdpxtW1HuZnS43nKaHryi2QoATn7JleqtlAU-eyVzUxHUtfgwYbjb7wPf_vkLwztZKoT6XZt6EqsfpSAw2o2YbNw2MsTRfZy-YSIHUIMgBBUFO6xLKjAEMXJZWhRHZQXgOhUl2Pob3_7sJRif95yRDwamlO8IVeIANKO9xUgOqfw3aOaftTZb2Dcml1WovmxBHdd-oPyaD1Q5UAaDyhc4gKQLDAK0-eLfUPWl0GhEwGMJRqWmZwItqDfUPY7jrjGLOavhhJkONpRWfKhQj3Bv74xXRxbuLNQul5H3Satf6FwZqDzxoVvw3SXKuNT33pSHob5w-IjePLy_oyY9s2yE7A9WPJGboeyE2CbzplKYrAEF4Rik5cB74DAsPedSYZVeEDBok4-McZ4549QcLEERJPvSiI6LoUJVm40?></g></svg>